<svg xmlns="http://www.w3.org/2000/svg" viewBox="0 0 180 180" fill="none">
  <rect width="180" height="180" rx="40" fill="#7c3aed"/>
  <path d="M90 30C56.86 30 30 56.86 30 90s26.86 60 60 60 60-26.86 60-60S123.14 30 90 30zm0 108c-26.51 0-48-21.49-48-48s21.49-48 48-48 48 21.49 48 48-21.49 48-48 48z" fill="white" opacity="0.3"/>
  <path d="M115 65L90 90l25 25" stroke="white" stroke-width="8" stroke-linecap="round" stroke-linejoin="round" fill="none"/>
  <circle cx="65" cy="90" r="12" fill="white"/>
  <circle cx="115" cy="90" r="12" fill="white"/>
  <path d="M65 78v-16c0-4.42 3.58-8 8-8h16c4.42 0 8 3.58 8 8v16" stroke="white" stroke-width="6" fill="none" stroke-linecap="round"/>
  <path d="M115 102v16c0 4.42-3.58 8-8 8h-16c-4.42 0-8-3.58-8-8v-16" stroke="white" stroke-width="6" fill="none" stroke-linecap="round"/>
</svg>
