<svg xmlns="http://www.w3.org/2000/svg" viewBox="0 0 32 32" fill="none">
  <rect width="32" height="32" rx="8" fill="#7c3aed"/>
  <path d="M16 8a2 2 0 012 2v2a2 2 0 11-4 0v-2a2 2 0 012-2z" fill="white"/>
  <path d="M10 14h12a2 2 0 012 2v6a2 2 0 01-2 2H10a2 2 0 01-2-2v-6a2 2 0 012-2z" stroke="white" stroke-width="1.5" fill="none"/>
  <circle cx="12" cy="19" r="1.5" fill="white"/>
  <circle cx="20" cy="19" r="1.5" fill="white"/>
  <path d="M13 22l2-2 1.5 1.5L20 18" stroke="white" stroke-width="1.2" stroke-linecap="round" stroke-linejoin="round" fill="none"/>
</svg>
