<svg xmlns="http://www.w3.org/2000/svg" viewBox="0 0 512 512" fill="none">
  <rect width="512" height="512" rx="112" fill="#7c3aed"/>
  <g transform="translate(96, 96)">
    <path d="M160 0C71.6 0 0 71.6 0 160s71.6 160 160 160 160-71.6 160-160S248.4 0 160 0zm0 296c-75 0-136-61-136-136S85 24 160 24s136 61 136 136-61 136-136 136z" fill="white" fill-opacity="0.3"/>
    <path d="M232 112L160 184l-40-40" stroke="white" stroke-width="20" stroke-linecap="round" stroke-linejoin="round"/>
    <path d="M88 184l72-72 72 72" stroke="white" stroke-width="20" stroke-linecap="round" stroke-linejoin="round"/>
    <circle cx="104" cy="160" r="24" fill="white"/>
    <circle cx="216" cy="160" r="24" fill="white"/>
    <path d="M104 136V88c0-13.3 10.7-24 24-24h8c13.3 0 24 10.7 24 24v48" stroke="white" stroke-width="12" fill="none" stroke-linecap="round"/>
    <path d="M216 184v48c0 13.3-10.7 24-24 24h-8c-13.3 0-24-10.7-24-24v-48" stroke="white" stroke-width="12" fill="none" stroke-linecap="round"/>
  </g>
</svg>
